<svg width="140" height="30" viewBox="0 0 140 30" fill="none" xmlns="http://www.w3.org/2000/svg">
<path d="M55.0853 29.9893C53.7915 29.9893 52.6119 29.7167 51.5464 29.17C50.4809 28.6246 49.5626 27.9121 48.793 27.0313C48.0234 26.1504 47.4303 25.1385 47.011 23.9943C46.5917 22.8501 46.382 21.6792 46.382 20.4815C46.382 19.2839 46.6049 18.0341 47.0508 16.8899C47.4966 15.7457 48.1083 14.7338 48.8859 13.853C49.6635 12.9734 50.5857 12.273 51.6512 11.7544C52.7167 11.2344 53.8711 10.9751 55.1118 10.9751C56.3525 10.9751 57.5852 11.2518 58.6507 11.8065C59.7162 12.3612 60.6305 13.087 61.3908 13.9853C62.1511 14.8835 62.7403 15.9007 63.1596 17.0356C63.5789 18.1704 63.7885 19.32 63.7885 20.4815C63.7885 21.7487 63.5656 22.9557 63.1198 24.0999C62.6739 25.2441 62.0622 26.252 61.2846 27.1235C60.5071 27.995 59.5888 28.6901 58.5313 29.2101C57.4737 29.73 56.3246 29.9893 55.0839 29.9893H55.0853ZM47.7182 20.4829C47.7182 21.5562 47.8974 22.5922 48.2556 23.5853C48.6139 24.5798 49.1208 25.4607 49.7763 26.2266C50.4318 26.9925 51.2093 27.6047 52.109 28.0618C53.0086 28.5203 54.0012 28.7489 55.0853 28.7489C56.1694 28.7489 57.2123 28.511 58.1133 28.0365C59.013 27.5619 59.7865 26.9324 60.4328 26.1477C61.079 25.3644 61.5779 24.4795 61.9269 23.4944C62.2758 22.5079 62.451 21.5054 62.451 20.4842C62.451 19.4109 62.2679 18.3763 61.9003 17.3818C61.5341 16.3873 61.0219 15.5064 60.3664 14.7405C59.7109 13.9746 58.9333 13.3637 58.0337 12.9052C57.134 12.4481 56.1508 12.2182 55.0839 12.2182C53.9654 12.2182 52.9516 12.4561 52.0427 12.9306C51.1337 13.4065 50.3601 14.0361 49.7219 14.8194C49.0836 15.6027 48.59 16.4875 48.241 17.4727C47.8907 18.4591 47.7169 19.463 47.7169 20.4829H47.7182Z" fill="white"/>
<path d="M65.2572 28.7489L78.4706 12.3225H65.4151V11.1074H80.0696V12.2169L66.9092 28.6433H80.0178V29.8583H65.2585V28.7489H65.2572Z" fill="white"/>
<path d="M83.3461 29.8583V11.1341H84.6836V29.8583H83.3461Z" fill="white"/>
<path d="M102.667 12.3225H95.8507V29.8583H94.5132V12.3225H87.6968V11.1074H102.666V12.3225H102.667Z" fill="white"/>
<path d="M118.082 28.6433V29.8583H105.682V11.1074H117.846V12.3225H107.018V19.6902H116.482V20.8531H107.018V28.6433H118.082Z" fill="white"/>
<path d="M138.662 29.8583V13.6431L131.322 26.2934H130.483L123.143 13.6431V29.8583H121.805V11.1074H123.143L130.903 24.5237L138.662 11.1074H140V29.8583H138.662Z" fill="white"/>
<path d="M109.658 7.26468C109.174 7.26468 108.727 7.16042 108.316 6.9519C107.906 6.74338 107.549 6.46759 107.247 6.12453C106.944 5.77475 106.708 5.38461 106.54 4.95411C106.379 4.51688 106.298 4.07293 106.298 3.62225C106.298 3.15139 106.379 2.70071 106.54 2.27021C106.702 1.83299 106.93 1.44621 107.226 1.10988C107.522 0.766828 107.872 0.497765 108.276 0.302695C108.679 0.100898 109.12 0 109.598 0C110.311 0 110.886 0.147984 111.323 0.443953C111.767 0.733195 112.103 1.10652 112.332 1.56393L111.908 1.81617C111.666 1.34531 111.343 1.00562 110.94 0.797097C110.543 0.581847 110.092 0.474222 109.588 0.474222C109.164 0.474222 108.78 0.565031 108.437 0.746648C108.094 0.921539 107.802 1.16033 107.559 1.46303C107.317 1.759 107.132 2.09532 107.004 2.47201C106.877 2.8487 106.813 3.23547 106.813 3.63234C106.813 4.05612 106.887 4.45635 107.035 4.83303C107.183 5.20972 107.388 5.54605 107.65 5.84202C107.913 6.13799 108.219 6.37005 108.568 6.53822C108.918 6.70638 109.292 6.79046 109.688 6.79046C110.153 6.79046 110.59 6.67947 111 6.4575C111.411 6.22879 111.804 5.87229 112.181 5.38797V5.96309C111.468 6.83082 110.627 7.26468 109.658 7.26468ZM112.07 4.14692H110.445V3.73324H112.514V7.21424H112.07V4.14692Z" fill="white"/>
<path d="M116.356 2.42156C115.885 2.43501 115.472 2.57627 115.115 2.84533C114.765 3.10767 114.52 3.4709 114.378 3.93504V7.21424H113.874V1.96752H114.358V3.25902C114.54 2.88906 114.782 2.58973 115.085 2.36102C115.387 2.12559 115.707 1.99106 116.043 1.95743C116.111 1.9507 116.171 1.94734 116.225 1.94734C116.279 1.94734 116.323 1.94734 116.356 1.94734V2.42156Z" fill="white"/>
<path d="M119.316 7.31513C118.946 7.31513 118.603 7.2445 118.286 7.10325C117.977 6.96199 117.708 6.76692 117.479 6.51804C117.25 6.26243 117.072 5.96982 116.944 5.64022C116.817 5.31062 116.753 4.9642 116.753 4.60097C116.753 4.23101 116.817 3.88459 116.944 3.56171C117.072 3.23211 117.25 2.94287 117.479 2.69399C117.715 2.43838 117.987 2.23994 118.296 2.09869C118.613 1.9507 118.952 1.87671 119.316 1.87671C119.679 1.87671 120.015 1.9507 120.325 2.09869C120.634 2.23994 120.906 2.43838 121.142 2.69399C121.377 2.94287 121.559 3.23211 121.687 3.56171C121.815 3.88459 121.879 4.23101 121.879 4.60097C121.879 4.9642 121.815 5.31062 121.687 5.64022C121.559 5.96982 121.377 6.26243 121.142 6.51804C120.913 6.76692 120.641 6.96199 120.325 7.10325C120.015 7.2445 119.679 7.31513 119.316 7.31513ZM117.257 4.62115C117.257 5.03147 117.348 5.40815 117.53 5.75121C117.718 6.08754 117.967 6.3566 118.276 6.5584C118.586 6.76019 118.929 6.86109 119.305 6.86109C119.682 6.86109 120.025 6.76019 120.335 6.5584C120.651 6.34987 120.9 6.07408 121.081 5.73103C121.27 5.38125 121.364 5.0012 121.364 4.59088C121.364 4.18056 121.27 3.80387 121.081 3.46081C120.9 3.11776 120.651 2.84533 120.335 2.64354C120.025 2.43501 119.686 2.33075 119.316 2.33075C118.939 2.33075 118.596 2.43501 118.286 2.64354C117.977 2.85206 117.728 3.12785 117.54 3.4709C117.351 3.81396 117.257 4.19737 117.257 4.62115Z" fill="white"/>
<path d="M123.037 4.99447V1.96752H123.541V4.92384C123.541 5.57632 123.649 6.06399 123.864 6.38687C124.086 6.70302 124.419 6.86109 124.863 6.86109C125.159 6.86109 125.442 6.79719 125.711 6.66938C125.987 6.53485 126.229 6.34987 126.437 6.11444C126.646 5.87229 126.801 5.59313 126.901 5.27699V1.96752H127.406V6.54831C127.406 6.62902 127.423 6.68956 127.456 6.72992C127.497 6.77028 127.551 6.79382 127.618 6.80055V7.21424C127.551 7.22096 127.497 7.22432 127.456 7.22432C127.423 7.22432 127.393 7.22096 127.366 7.21424C127.251 7.20078 127.157 7.1537 127.083 7.07298C127.009 6.98553 126.969 6.88127 126.962 6.76019L126.952 5.97318C126.723 6.39023 126.407 6.71983 126.003 6.96199C125.607 7.19742 125.176 7.31513 124.712 7.31513C124.16 7.31513 123.743 7.12006 123.461 6.72992C123.178 6.33978 123.037 5.7613 123.037 4.99447Z" fill="white"/>
<path d="M131.572 7.31513C131.122 7.31513 130.718 7.19742 130.362 6.96199C130.012 6.71983 129.729 6.42723 129.514 6.08417V9.36337H129.009V1.96752H129.474V3.01686C129.689 2.68053 129.975 2.40811 130.331 2.19959C130.688 1.98433 131.065 1.87671 131.461 1.87671C131.831 1.87671 132.168 1.95407 132.47 2.10878C132.773 2.25676 133.036 2.46192 133.258 2.72426C133.486 2.97987 133.661 3.26911 133.782 3.59198C133.91 3.91486 133.974 4.25119 133.974 4.60097C133.974 5.08528 133.873 5.53596 133.671 5.95301C133.469 6.36333 133.187 6.69293 132.824 6.94181C132.467 7.19069 132.05 7.31513 131.572 7.31513ZM131.451 6.86109C131.761 6.86109 132.037 6.79719 132.279 6.66938C132.528 6.54158 132.74 6.37005 132.914 6.1548C133.089 5.93955 133.224 5.6974 133.318 5.42833C133.412 5.15927 133.459 4.88348 133.459 4.60097C133.459 4.29827 133.406 4.01239 133.298 3.74333C133.19 3.46754 133.039 3.22539 132.844 3.01686C132.655 2.80834 132.433 2.64354 132.178 2.52246C131.929 2.39466 131.657 2.33075 131.361 2.33075C131.179 2.33075 130.984 2.36775 130.775 2.44174C130.573 2.51573 130.378 2.61999 130.19 2.75453C130.008 2.88906 129.857 3.04377 129.736 3.21866C129.615 3.38682 129.541 3.56171 129.514 3.74333V5.46869C129.635 5.7243 129.79 5.95973 129.978 6.17498C130.173 6.3835 130.399 6.55167 130.654 6.67947C130.91 6.80055 131.176 6.86109 131.451 6.86109Z" fill="white"/>
<path d="M137.418 7.31513C137.048 7.31513 136.705 7.2445 136.389 7.10325C136.072 6.95526 135.797 6.75683 135.561 6.50795C135.332 6.25234 135.151 5.95973 135.016 5.63013C134.888 5.2938 134.825 4.94066 134.825 4.5707C134.825 4.07293 134.936 3.62225 135.158 3.21866C135.38 2.81506 135.686 2.49219 136.076 2.25003C136.466 2.00115 136.903 1.87671 137.388 1.87671C137.885 1.87671 138.326 2.00115 138.709 2.25003C139.093 2.49892 139.396 2.82852 139.618 3.23884C139.846 3.64243 139.961 4.08638 139.961 4.5707C139.961 4.61106 139.961 4.65142 139.961 4.69178C139.961 4.73213 139.957 4.76577 139.95 4.79267H135.349C135.376 5.18954 135.487 5.54941 135.682 5.87229C135.877 6.19516 136.126 6.45077 136.429 6.63911C136.738 6.82073 137.075 6.91154 137.438 6.91154C137.801 6.91154 138.144 6.81737 138.467 6.62902C138.79 6.44068 139.015 6.19852 139.143 5.90256L139.587 6.02363C139.486 6.27252 139.325 6.49449 139.103 6.68956C138.888 6.88463 138.632 7.03934 138.336 7.1537C138.047 7.26132 137.741 7.31513 137.418 7.31513ZM135.329 4.39917H139.476C139.449 3.98885 139.342 3.62562 139.153 3.30947C138.965 2.99332 138.716 2.74444 138.407 2.56282C138.104 2.3812 137.768 2.29039 137.398 2.29039C137.028 2.29039 136.691 2.3812 136.389 2.56282C136.086 2.74444 135.84 2.99332 135.652 3.30947C135.464 3.62562 135.356 3.98885 135.329 4.39917Z" fill="white"/>
<path d="M13.6152 29.8115C13.1653 29.8115 12.7128 29.7888 12.2604 29.7447C4.80308 29.0055 -0.667801 22.2927 0.0659846 14.7806C0.799771 7.26844 7.46488 1.75865 14.9208 2.4965C17.5043 2.7518 20.4488 3.74496 22.6621 5.80211L20.4222 8.25892C18.5075 6.74446 16.3712 5.99058 14.5971 5.81414C8.95236 5.2554 3.91538 9.42317 3.36072 15.1054C2.80607 20.7876 6.9434 25.8657 12.5841 26.4244C18.2288 26.9845 23.2658 22.8154 23.8205 17.1331C23.9386 15.3861 24.4587 14.687 25.5959 14.7164C25.9555 14.7271 26.3018 14.9009 26.5685 15.207C27.013 15.7149 27.2068 16.5156 27.1139 17.4606C26.7583 21.0991 25.0174 24.3819 22.2123 26.7011C19.7588 28.7302 16.748 29.8102 13.6152 29.8115Z" fill="white"/>
<path d="M28.3853 30C27.9819 30 27.5878 29.8463 27.2892 29.5642L23.7968 26.2613L25.9835 23.9141L28.311 26.1156L37.8727 15.8579L27.69 6.22583L18.1282 16.4835L21.3898 19.5645C22.032 20.1727 22.0638 21.1926 21.4614 21.8396C20.8577 22.4865 19.8452 22.5186 19.203 21.9118L14.7751 17.7293C14.1328 17.1211 14.101 16.1012 14.7047 15.4543L26.4533 2.85071C27.0557 2.20376 28.0695 2.17168 28.7117 2.77853L41.2232 14.6135C41.535 14.9076 41.7128 15.3072 41.7261 15.7363C41.7394 16.1654 41.5868 16.5757 41.2935 16.8885L29.545 29.4921C29.3115 29.742 29.0129 29.9078 28.6785 29.9719C28.5803 29.9906 28.4808 30 28.3826 30H28.3853Z" fill="white"/>
</svg>
